<?xml version="1.0" encoding="utf-8"?>
<!-- Generator: Adobe Illustrator 16.0.0, SVG Export Plug-In . SVG Version: 6.00 Build 0)  -->
<!DOCTYPE svg PUBLIC "-//W3C//DTD SVG 1.1//EN" "http://www.w3.org/Graphics/SVG/1.1/DTD/svg11.dtd">
<svg version="1.1" id="Layer_1" xmlns="http://www.w3.org/2000/svg" xmlns:xlink="http://www.w3.org/1999/xlink" x="0px" y="0px"
	 width="800px" height="100px" viewBox="0 0 800 100" style="enable-background:new 0 0 800 100;" xml:space="preserve">
<style type="text/css">
<![CDATA[
	.st0{fill:#415863;}
]]>
</style>
<g>
	<path class="st0" d="M60.7,67.7h-6.4V50.2H36.5v17.5h-6.3V28.9h6.3v15.8h17.9V28.9h6.4L60.7,67.7L60.7,67.7z"/>
	<path class="st0" d="M102.3,67.7l-3.9-10.8H83.7l-3.8,10.8h-6.7l14.5-38.9h6.9l14.5,38.9H102.3z M96.8,51.5L93.2,41
		c-0.3-0.7-0.6-1.8-1.1-3.3s-0.8-2.6-1-3.3c-0.5,2.2-1.2,4.5-2.1,7.1l-3.5,10.1L96.8,51.5L96.8,51.5z"/>
	<path class="st0" d="M153.4,67.7h-7.8l-19-30.9h-0.2l0.1,1.7c0.2,3.3,0.4,6.3,0.4,9v20.1h-5.7V28.9h7.7l19,30.7h0.2
		c0-0.4-0.1-1.9-0.2-4.4c-0.1-2.6-0.2-4.5-0.2-6V28.9h5.8v38.8H153.4z"/>
	<path class="st0" d="M200.7,47.9c0,6.4-1.8,11.3-5.3,14.7c-3.5,3.4-8.7,5.1-15.3,5.1h-10.8V28.9h12c6.2,0,11,1.7,14.4,5
		C199,37.2,200.7,41.9,200.7,47.9z M194.1,48.1c0-9.3-4.3-13.9-13-13.9h-5.5v28.1h4.5C189.4,62.3,194.1,57.6,194.1,48.1z"/>
	<path class="st0" d="M229.3,33.8c-3.6,0-6.5,1.3-8.6,3.9c-2.1,2.6-3.1,6.1-3.1,10.7c0,4.8,1,8.3,3,10.8c2,2.4,4.9,3.7,8.7,3.7
		c1.6,0,3.2-0.2,4.8-0.5c1.6-0.3,3.1-0.7,4.8-1.3v5.4c-3,1.1-6.5,1.7-10.3,1.7c-5.7,0-10-1.7-13.1-5.2c-3-3.4-4.6-8.3-4.6-14.7
		c0-4,0.7-7.6,2.2-10.6s3.6-5.3,6.4-6.9c2.8-1.6,6.1-2.4,9.8-2.4c4,0,7.6,0.8,11,2.5l-2.3,5.3c-1.3-0.6-2.7-1.2-4.1-1.6
		C232.5,34,230.9,33.8,229.3,33.8z"/>
	<path class="st0" d="M260.1,52.2v15.5h-6.3V28.9h10.9c5,0,8.7,0.9,11.1,2.8c2.4,1.9,3.6,4.7,3.6,8.5c0,4.8-2.5,8.3-7.5,10.3
		l11,17.1h-7.2l-9.3-15.5h-6.3V52.2z M260.1,47h4.4c3,0,5.1-0.5,6.4-1.6c1.3-1.1,2-2.7,2-4.9s-0.7-3.8-2.2-4.7
		c-1.4-1-3.6-1.4-6.5-1.4H260L260.1,47L260.1,47z"/>
	<path class="st0" d="M321.7,67.7l-3.9-10.8H303l-3.8,10.8h-6.7L307,28.8h6.9l14.5,38.9H321.7z M316.2,51.5L312.6,41
		c-0.3-0.7-0.6-1.8-1.1-3.3s-0.8-2.6-1-3.3c-0.5,2.2-1.2,4.5-2.1,7.1l-3.5,10.1L316.2,51.5L316.2,51.5z"/>
	<path class="st0" d="M347.7,67.7h-6.3V28.9h21.9v5.4h-15.6v12.1h14.6v5.4h-14.6V67.7z"/>
	<path class="st0" d="M392.9,67.7h-6.3V34.4h-11.4V29h29.1v5.4h-11.4V67.7L392.9,67.7z"/>
	<path class="st0" d="M418.6,67.7V28.9h6.3v38.7h-6.3V67.7z"/>
	<path class="st0" d="M473.9,67.7h-7.8l-19-30.9h-0.2l0.1,1.7c0.2,3.3,0.4,6.3,0.4,9v20.1h-5.7V28.9h7.7l19,30.7h0.2
		c0-0.4-0.1-1.9-0.2-4.4c-0.1-2.6-0.2-4.5-0.2-6V28.9h5.8L473.9,67.7L473.9,67.7z"/>
	<path class="st0" d="M503.8,46.7H518v19.4c-2.3,0.8-4.6,1.3-6.7,1.6c-2.1,0.3-4.5,0.5-7,0.5c-5.9,0-10.4-1.7-13.6-5.2
		c-3.2-3.5-4.8-8.4-4.8-14.7c0-6.2,1.8-11.1,5.4-14.6c3.6-3.5,8.5-5.3,14.8-5.3c4,0,7.9,0.8,11.5,2.3l-2.2,5.3
		c-3.1-1.4-6.3-2.2-9.4-2.2c-4.1,0-7.4,1.3-9.8,3.9c-2.4,2.6-3.6,6.1-3.6,10.7c0,4.7,1.1,8.3,3.2,10.8c2.2,2.5,5.3,3.7,9.3,3.7
		c2,0,4.2-0.3,6.6-0.8v-10h-8v-5.4H503.8z"/>
</g>
<g>
	<path class="st0" d="M595.5,40.7c0,4-1.3,7.1-4,9.3c-2.6,2.2-6.4,3.2-11.3,3.2h-4v14.5h-6.3V28.9H581c4.8,0,8.5,1,10.9,3
		C594.3,33.9,595.5,36.8,595.5,40.7z M576.2,47.9h3.4c3.2,0,5.6-0.6,7.2-1.7c1.5-1.1,2.3-2.9,2.3-5.3c0-2.2-0.7-3.9-2-5
		c-1.4-1.1-3.5-1.6-6.4-1.6h-4.4v13.6H576.2z"/>
	<path class="st0" d="M607.9,67.7V28.9h6.3v38.7h-6.3V67.7z"/>
	<path class="st0" d="M661.4,67.7h-7.3l-9.7-15.8l-9.8,15.8h-6.8l12.8-20.1l-12-18.7h7l9,14.7l9-14.7h6.8l-12.1,18.8L661.4,67.7z"/>
	<path class="st0" d="M696.8,67.7h-21.9V28.9h21.9v5.4h-15.6v10.5h14.6v5.3h-14.6v12.2h15.6V67.7z"/>
	<path class="st0" d="M711.7,67.7V28.9h6.3v33.3h16.4v5.4h-22.7V67.7z"/>
	<path class="st0" d="M769,57.2c0,3.4-1.2,6.1-3.7,8.1s-5.9,2.9-10.3,2.9c-4.4,0-8-0.7-10.8-2v-6c1.8,0.8,3.6,1.5,5.6,2
		s3.8,0.7,5.6,0.7c2.5,0,4.4-0.5,5.5-1.4c1.2-1,1.8-2.2,1.8-3.8c0-1.4-0.5-2.7-1.6-3.7s-3.4-2.2-6.8-3.6c-3.5-1.4-6-3.1-7.5-4.9
		c-1.4-1.8-2.2-4-2.2-6.6c0-3.2,1.1-5.8,3.4-7.6c2.3-1.9,5.4-2.8,9.2-2.8c3.7,0,7.4,0.8,11.1,2.4l-2,5.2c-3.4-1.4-6.5-2.2-9.2-2.2
		c-2,0-3.6,0.4-4.7,1.3c-1.1,0.9-1.6,2.1-1.6,3.5c0,1,0.2,1.9,0.6,2.6c0.4,0.7,1.1,1.4,2.1,2c1,0.6,2.7,1.5,5.2,2.5
		c2.8,1.2,4.9,2.3,6.3,3.3c1.3,1,2.3,2.2,2.9,3.5C768.7,53.9,769,55.4,769,57.2z"/>
</g>
<rect x="540.8" y="45.1" class="st0" width="6.3" height="6.3"/>
</svg>
