<?xml version="1.0" encoding="utf-8"?>
<!-- Generator: Adobe Illustrator 16.0.0, SVG Export Plug-In . SVG Version: 6.00 Build 0)  -->
<!DOCTYPE svg PUBLIC "-//W3C//DTD SVG 1.1//EN" "http://www.w3.org/Graphics/SVG/1.1/DTD/svg11.dtd">
<svg version="1.1" id="Layer_1" xmlns="http://www.w3.org/2000/svg" xmlns:xlink="http://www.w3.org/1999/xlink" x="0px" y="0px"
	 width="800px" height="100px" viewBox="0 0 800 100" enable-background="new 0 0 800 100" xml:space="preserve">
<g>
	<path fill="#FFFFFF" d="M60.7,67.7h-6.4V50.2H36.5v17.5h-6.3V28.9h6.3v15.8H54.4V28.9h6.4L60.7,67.7L60.7,67.7z"/>
	<path fill="#FFFFFF" d="M102.3,67.7l-3.9-10.8H83.7L79.9,67.7H73.2l14.5-38.9H94.6l14.5,38.9H102.3z M96.8,51.5L93.2,41
		C92.9,40.3,92.6,39.2,92.1,37.7s-0.8-2.6-1-3.3c-0.5,2.2-1.2,4.5-2.1,7.1l-3.5,10.1L96.8,51.5L96.8,51.5z"/>
	<path fill="#FFFFFF" d="M153.4,67.7h-7.8l-19-30.9h-0.2l0.101,1.7c0.2,3.3,0.399,6.3,0.399,9v20.1H121.2V28.9h7.699l19,30.7h0.2
		c0-0.399-0.1-1.899-0.2-4.399c-0.1-2.601-0.199-4.5-0.199-6V28.9h5.8v38.8H153.4z"/>
	<path fill="#FFFFFF" d="M200.7,47.9c0,6.4-1.801,11.3-5.301,14.7C191.9,66,186.7,67.7,180.1,67.7h-10.8V28.9h12
		c6.2,0,11,1.7,14.4,5C199,37.2,200.7,41.9,200.7,47.9z M194.1,48.1c0-9.3-4.3-13.9-13-13.9h-5.5v28.1h4.5
		C189.4,62.3,194.1,57.6,194.1,48.1z"/>
	<path fill="#FFFFFF" d="M229.3,33.8c-3.6,0-6.5,1.3-8.6,3.9c-2.101,2.6-3.101,6.1-3.101,10.7c0,4.8,1,8.3,3,10.8
		c2,2.399,4.9,3.7,8.7,3.7c1.6,0,3.2-0.2,4.8-0.5c1.601-0.301,3.101-0.7,4.8-1.301v5.4c-3,1.1-6.5,1.7-10.3,1.7
		c-5.7,0-10-1.7-13.1-5.2c-3-3.4-4.601-8.3-4.601-14.7c0-4,0.7-7.6,2.2-10.6s3.601-5.3,6.4-6.9c2.8-1.6,6.1-2.4,9.8-2.4
		c4,0,7.6,0.8,11,2.5l-2.3,5.3c-1.3-0.6-2.7-1.2-4.101-1.6C232.5,34,230.9,33.8,229.3,33.8z"/>
	<path fill="#FFFFFF" d="M260.1,52.2v15.5h-6.3V28.9h10.9c5,0,8.699,0.9,11.1,2.8c2.4,1.9,3.6,4.7,3.6,8.5c0,4.8-2.5,8.3-7.5,10.3
		l11,17.1H275.7L266.4,52.1h-6.3V52.2L260.1,52.2z M260.1,47h4.4c3,0,5.1-0.5,6.399-1.6c1.301-1.1,2-2.7,2-4.9s-0.699-3.8-2.199-4.7
		c-1.4-1-3.601-1.4-6.5-1.4H260L260.1,47L260.1,47z"/>
	<path fill="#FFFFFF" d="M321.7,67.7l-3.9-10.8H303l-3.8,10.8h-6.7L307,28.8h6.899l14.5,38.9H321.7z M316.2,51.5L312.6,41
		c-0.3-0.7-0.6-1.8-1.1-3.3s-0.8-2.6-1-3.3c-0.5,2.2-1.2,4.5-2.101,7.1l-3.5,10.1L316.2,51.5L316.2,51.5z"/>
	<path fill="#FFFFFF" d="M347.7,67.7H341.4V28.9h21.9v5.4h-15.6v12.1h14.6v5.4h-14.6V67.7z"/>
	<path fill="#FFFFFF" d="M392.9,67.7h-6.3V34.4H375.2V29h29.1v5.4h-11.4V67.7L392.9,67.7z"/>
	<path fill="#FFFFFF" d="M418.6,67.7V28.9h6.3v38.7h-6.3V67.7z"/>
	<path fill="#FFFFFF" d="M473.9,67.7h-7.8l-19-30.9h-0.2L447,38.5c0.199,3.3,0.399,6.3,0.399,9v20.1h-5.7V28.9h7.7l19,30.7h0.2
		c0-0.399-0.1-1.899-0.2-4.399c-0.1-2.601-0.2-4.5-0.2-6V28.9h5.8L473.9,67.7L473.9,67.7z"/>
	<path fill="#FFFFFF" d="M503.8,46.7H518V66.1c-2.301,0.801-4.601,1.301-6.7,1.601c-2.101,0.3-4.5,0.5-7,0.5
		c-5.9,0-10.4-1.7-13.601-5.2s-4.8-8.4-4.8-14.7c0-6.2,1.8-11.1,5.4-14.6c3.6-3.5,8.5-5.3,14.8-5.3c4,0,7.9,0.8,11.5,2.3l-2.2,5.3
		c-3.1-1.4-6.3-2.2-9.4-2.2c-4.1,0-7.399,1.3-9.8,3.9c-2.399,2.6-3.6,6.1-3.6,10.7c0,4.7,1.1,8.3,3.2,10.8c2.2,2.5,5.3,3.7,9.3,3.7
		c2,0,4.2-0.301,6.6-0.801v-10h-8V46.7H503.8z"/>
</g>
<g>
	<path fill="#FFFFFF" d="M595.5,40.7c0,4-1.301,7.1-4,9.3c-2.601,2.2-6.4,3.2-11.301,3.2h-4v14.5h-6.3V28.9H581
		c4.8,0,8.5,1,10.899,3C594.3,33.9,595.5,36.8,595.5,40.7z M576.199,47.9h3.4c3.2,0,5.6-0.6,7.2-1.7c1.5-1.1,2.3-2.9,2.3-5.3
		c0-2.2-0.7-3.9-2-5c-1.4-1.1-3.5-1.6-6.4-1.6H576.3v13.6H576.199z"/>
	<path fill="#FFFFFF" d="M607.9,67.7V28.9h6.3v38.7h-6.3V67.7z"/>
	<path fill="#FFFFFF" d="M661.4,67.7h-7.3l-9.7-15.8l-9.8,15.8h-6.8l12.8-20.1l-12-18.7h7l9,14.7l9-14.7h6.8l-12.1,18.8L661.4,67.7z
		"/>
	<path fill="#FFFFFF" d="M696.8,67.7h-21.9V28.9h21.9v5.4h-15.601v10.5H695.8v5.3h-14.601v12.2H696.8V67.7z"/>
	<path fill="#FFFFFF" d="M711.699,67.7V28.9H718v33.3H734.4V67.6h-22.7V67.7z"/>
	<path fill="#FFFFFF" d="M769,57.2c0,3.399-1.2,6.1-3.7,8.1s-5.9,2.9-10.3,2.9c-4.4,0-8-0.7-10.801-2v-6
		c1.801,0.8,3.601,1.5,5.601,2s3.8,0.7,5.6,0.7c2.5,0,4.4-0.5,5.5-1.4c1.2-1,1.8-2.2,1.8-3.8c0-1.4-0.5-2.7-1.6-3.7
		s-3.4-2.2-6.8-3.6c-3.5-1.4-6-3.1-7.5-4.9c-1.4-1.8-2.2-4-2.2-6.6c0-3.2,1.1-5.8,3.4-7.6c2.3-1.9,5.399-2.8,9.199-2.8
		c3.7,0,7.4,0.8,11.101,2.4l-2,5.2c-3.4-1.4-6.5-2.2-9.2-2.2c-2,0-3.6,0.4-4.7,1.3c-1.1,0.9-1.6,2.1-1.6,3.5c0,1,0.2,1.9,0.6,2.6
		c0.4,0.7,1.1,1.4,2.1,2c1,0.6,2.7,1.5,5.2,2.5c2.8,1.2,4.9,2.3,6.3,3.3c1.301,1,2.301,2.2,2.9,3.5C768.699,53.9,769,55.4,769,57.2z
		"/>
</g>
<rect x="540.8" y="45.1" fill="#FFFFFF" width="6.3" height="6.3"/>
</svg>
